<?xml version="1.0" encoding="utf-8"?>
<!-- Generator: Adobe Illustrator 16.0.0, SVG Export Plug-In . SVG Version: 6.00 Build 0)  -->
<!DOCTYPE svg PUBLIC "-//W3C//DTD SVG 1.1//EN" "http://www.w3.org/Graphics/SVG/1.1/DTD/svg11.dtd" [
	<!ENTITY ns_flows "http://ns.adobe.com/Flows/1.0/">
	<!ENTITY ns_extend "http://ns.adobe.com/Extensibility/1.0/">
	<!ENTITY ns_ai "http://ns.adobe.com/AdobeIllustrator/10.0/">
	<!ENTITY ns_graphs "http://ns.adobe.com/Graphs/1.0/">
]>
<svg version="1.1" id="Layer_2" xmlns:x="&ns_extend;" xmlns:i="&ns_ai;" xmlns:graph="&ns_graphs;"
	 xmlns="http://www.w3.org/2000/svg" xmlns:xlink="http://www.w3.org/1999/xlink" xmlns:a="http://ns.adobe.com/AdobeSVGViewerExtensions/3.0/"
	 x="0px" y="0px" width="263.5px" height="104.5px" viewBox="0 0 263.5 104.5" enable-background="new 0 0 263.5 104.5"
	 xml:space="preserve">
<g>
	<path fill="#FFFFFF" stroke="#A0C014" d="M12.06,34.1c0,1.02-0.84,1.2-1.2,1.14s-0.54-0.18-0.96-0.18c-1.14,0-1.44,0.9-1.44,1.74
		c0,1.44,1.74,2.88,3.9,2.88c2.16,0,4.439-1.26,4.439-3.96c0-1.44-0.72-3.12-3.419-4.56c-1.92-1.02-4.38-2.64-4.38-5.64
		c0-2.46,1.979-5.04,5.7-5.04c3.6,0,4.979,2.58,4.979,3.6c0,0.78-0.6,1.38-1.38,1.38c-0.36,0-0.96-0.3-1.08-0.78
		c-0.18-0.6-1.02-1.92-2.58-1.92c-1.92,0-3,1.2-3,2.76c0,1.14,0.54,1.86,2.94,3.3c2.94,1.74,4.92,3.48,4.92,6.54
		c0,3.72-2.64,6.479-7.2,6.479c-3.42,0-6.54-1.98-6.54-4.979c0-2.52,1.86-4.32,4.14-4.32C10.979,32.541,12.06,32.9,12.06,34.1z"/>
	<path fill="#FFFFFF" stroke="#A0C014" d="M41.038,29.36c0,8.04-3.6,12.24-7.68,12.24c-3.6,0-5.1-3-5.1-3.84
		c0-0.78,0.6-1.32,1.32-1.32c0.48,0,0.96,0.24,1.2,0.66c0.42,0.84,1.02,1.98,2.58,1.98c2.76,0,4.98-3.42,4.98-9.72
		c0-1.92-0.72-6.24-3.6-6.24c-4.8,0-9.24,9-9.48,20.939c6.18,0,9.96,5.16,9.96,10.199c0,4.08-2.04,6-5.04,6
		c-4.74,0-7.5-5.82-7.56-13.2c-1.38,0.42-2.46,1.74-2.64,2.7c-0.06,0.36-0.6,0.66-1.14,0.66c-0.72,0-1.08-0.54-1.08-1.2
		c0-1.38,1.56-3.9,4.86-4.74c0.12-14.1,5.34-23.939,12.12-23.939C38.878,20.541,41.038,24.261,41.038,29.36z M32.519,54.319
		c0-3.78-2.7-7.859-7.26-7.74c0.06,7.44,2.64,11.28,4.86,11.28C31.859,57.859,32.519,56.54,32.519,54.319z"/>
	<path fill="#FFFFFF" stroke="#A0C014" d="M47.218,40.34c-0.12,0.72-0.66,1.14-1.32,1.14c-0.72,0-1.2-0.6-1.2-1.32
		c0-0.42,1.68-10.26,1.68-12.24c0-2.64-0.54-3.66-1.32-4.44c-0.3-0.24-0.36-0.6-0.36-0.96c0-0.72,0.6-1.32,1.26-1.32
		c1.14,0,2.82,2.04,2.7,5.04c1.32-3.96,4.56-5.76,7.56-5.76c0.78,0,1.44,0.54,1.44,1.32c0,0.72-0.54,1.14-1.26,1.2
		c-6.24,0.36-7.44,7.68-8.82,15.359L47.218,40.34z"/>
	<path fill="#FFFFFF" stroke="#A0C014" d="M64.258,22.401c0,0.06,0,0.18-0.06,0.3c-1.08,4.32-2.22,12.12-2.58,17.819
		c-0.06,0.72-0.6,1.26-1.32,1.26c-0.78,0-1.38-0.6-1.38-1.38c0-0.78,0.9-11.219,2.7-18.359c0.12-0.72,0.9-1.14,1.62-0.96
		C63.838,21.261,64.258,21.801,64.258,22.401z M67.018,13.281l-2.4,1.68l3.66,2.34l-4.44-0.72l-1.68,3.3l0.06-3.48l-3-0.24
		l2.94-1.68l-0.3-2.76l1.8,1.98L67.018,13.281z"/>
	<path fill="#FFFFFF" stroke="#A0C014" d="M75.777,41.6c-0.06,0-0.36-0.06-0.42-0.06c-3-0.48-4.44-2.94-4.44-7.56
		c0-2.88,0.36-6.24,1.5-10.8c-1.74,0-2.4,0.3-3.24,0.3c-0.42,0-0.84-0.36-0.84-1.02c0-1.68,2.52-1.74,4.68-1.8
		c0.479-1.98,1.2-4.74,1.86-7.14c0.18-0.54,0.66-0.9,1.2-0.96c0.78,0,1.38,0.48,1.38,1.2c0,0.24-0.06,0.54-0.12,0.66
		c-0.6,1.8-1.38,4.98-1.68,6.3c0.84,0,2.04,0.06,3.66,0.12c0.66,0.12,1.32,0.6,1.32,1.26c0,0.72-0.48,1.2-1.14,1.2
		c-1.14,0-3.18-0.12-4.32-0.18c-1.08,3.84-1.62,7.62-1.62,10.68c0,4.74,1.74,5.04,2.34,5.16c0.66,0,1.2,0.6,1.2,1.26
		C77.097,40.94,76.497,41.54,75.777,41.6z"/>
	<path fill="#FFFFFF" stroke="#A0C014" d="M94.077,25.221c0-1.2-0.84-2.04-2.4-2.04c-3,0-7.26,3.84-7.26,10.26
		c0,2.04,0.66,5.7,4.98,5.7c1.56,0,3.18-0.72,4.2-1.98c0.24-0.3,0.54-0.48,0.96-0.48c0.72,0,1.2,0.6,1.2,1.38
		c0,1.14-2.88,3.54-6.54,3.54c-4.56,0-7.5-3.06-7.5-8.16c0-7.56,5.28-12.84,10.02-12.84c3.6,0,5.04,2.22,5.04,4.62
		c0,4.74-4.979,7.08-8.52,7.08c-0.72,0-1.32-0.48-1.32-1.26c0-0.66,0.54-1.26,1.32-1.32C91.077,29.661,94.077,27.92,94.077,25.221z"
		/>
	<path fill="#FFFFFF" stroke="#A0C014" d="M106.376,3.742c1.62,0,1.62,2.22,1.62,4.14c0,2.82-1.02,6.72-1.86,10.2
		c-1.32,5.399-3.18,14.039-3.18,18.839c0,1.68,0.18,2.22,0.24,2.4c0.12,0.18,0.18,0.36,0.18,0.6c0,0.78-0.6,1.32-1.32,1.32
		c-1.68,0-1.8-2.64-1.8-4.32c0-4.8,1.8-13.439,2.94-18.059c1.32-5.459,2.16-8.52,2.16-10.979c0-1.2-0.06-1.98-0.24-2.28
		c-0.06-0.18-0.12-0.36-0.12-0.48c0-0.6,0.36-1.08,0.84-1.26C105.956,3.802,106.196,3.742,106.376,3.742z"/>
	<path fill="#FFFFFF" stroke="#A0C014" d="M113.276,22.341c-0.48,2.58-1.32,6.84-1.32,10.68c0,1.74,0.24,5.58,2.28,5.58
		c3.66,0,8.16-9.36,8.1-16.619c0-0.72,0.66-1.26,1.38-1.26c0.72,0,1.2,0.6,1.2,1.32c0,2.7-0.42,8.58-0.6,11.399
		c-0.18,2.52-0.6,7.439-2.16,12.6c1.98,1.14,3.48,3.12,3.48,5.399c0,0.72-0.6,1.32-1.32,1.32c-0.72,0-1.26-0.6-1.26-1.32
		c0-1.68-1.32-2.58-1.86-2.82c-2.64,6.78-8.52,11.1-13.859,11.1c-2.94,0-5.58-1.44-5.58-5.1c0-6.18,7.74-10.08,14.039-10.08
		c1.38,0,2.76,0.18,3.84,0.54c0.96-3,1.86-7.86,2.22-11.52c-1.5,4.2-4.68,7.68-7.62,7.68c-3.72,0-4.98-4.02-4.98-8.22
		c0-4.14,0.9-8.7,1.32-10.92c0.12-0.42,0.3-1.38,1.44-1.38c0.72,0,1.32,0.6,1.32,1.38L113.276,22.341z M118.916,47.36
		c-0.84-0.24-2.1-0.36-3.12-0.36c-4.979,0-11.339,3.18-11.339,7.439c0,1.92,1.62,2.82,3.24,2.82
		C111.836,57.259,116.576,53.359,118.916,47.36z"/>
	<path fill="#FFFFFF" stroke="#A0C014" d="M145.675,41.6c-0.06,0-0.36-0.06-0.42-0.06c-3-0.48-4.44-2.94-4.44-7.56
		c0-2.88,0.36-6.24,1.5-10.8c-1.74,0-2.4,0.3-3.24,0.3c-0.42,0-0.84-0.36-0.84-1.02c0-1.68,2.52-1.74,4.68-1.8
		c0.48-1.98,1.2-4.74,1.86-7.14c0.18-0.54,0.66-0.9,1.2-0.96c0.78,0,1.38,0.48,1.38,1.2c0,0.24-0.06,0.54-0.12,0.66
		c-0.6,1.8-1.38,4.98-1.68,6.3c0.84,0,2.04,0.06,3.66,0.12c0.66,0.12,1.32,0.6,1.32,1.26c0,0.72-0.48,1.2-1.14,1.2
		c-1.14,0-3.18-0.12-4.32-0.18c-1.08,3.84-1.62,7.62-1.62,10.68c0,4.74,1.74,5.04,2.34,5.16c0.66,0,1.2,0.6,1.2,1.26
		C146.995,40.94,146.395,41.54,145.675,41.6z"/>
	<path fill="#FFFFFF" stroke="#A0C014" d="M155.755,22.881c-0.6,2.64-1.44,6.78-1.44,10.5c0,2.76,0.54,5.64,2.52,5.64
		c3.84,0,7.319-7.8,8.64-17.279c0.12-0.72,0.66-1.14,1.56-1.14c0.601,0,1.08,0.78,0.96,1.5c-0.06,0.6-0.42,2.88-0.84,4.92
		c-0.54,3.24-1.02,6-1.02,8.1c0,1.92,0.359,3.24,1.199,4.14c0.24,0.3,0.301,0.6,0.301,0.9c0,0.72-0.601,1.32-1.32,1.32
		c-1.26,0-2.76-2.52-2.7-5.88c-1.56,3.72-4.14,6-6.779,6c-2.16,0-5.16-1.38-5.16-8.22c0-4.02,0.9-8.52,1.32-10.68
		c0.12-0.54,0.3-1.5,1.38-1.5c0.78,0,1.38,0.66,1.38,1.38V22.881z"/>
	<path fill="#FFFFFF" stroke="#A0C014" d="M178.435,41.6c-0.061,0-0.36-0.06-0.42-0.06c-3-0.48-4.44-2.94-4.44-7.56
		c0-2.88,0.36-6.24,1.5-10.8c-1.739,0-2.399,0.3-3.239,0.3c-0.42,0-0.84-0.36-0.84-1.02c0-1.68,2.52-1.74,4.68-1.8
		c0.479-1.98,1.2-4.74,1.859-7.14c0.181-0.54,0.66-0.9,1.2-0.96c0.78,0,1.38,0.48,1.38,1.2c0,0.24-0.06,0.54-0.12,0.66
		c-0.6,1.8-1.38,4.98-1.68,6.3c0.84,0,2.04,0.06,3.66,0.12c0.66,0.12,1.319,0.6,1.319,1.26c0,0.72-0.479,1.2-1.14,1.2
		c-1.14,0-3.18-0.12-4.32-0.18c-1.079,3.84-1.619,7.62-1.619,10.68c0,4.74,1.739,5.04,2.34,5.16c0.66,0,1.199,0.6,1.199,1.26
		C179.754,40.94,179.154,41.54,178.435,41.6z"/>
	<path fill="#FFFFFF" stroke="#A0C014" d="M201.474,28.28c0,6.42-3.78,13.32-9.899,13.32c-4.14,0-6.9-3.66-6.9-9.24
		c0-1.68,0.24-3.24,0.841-4.86c0.18-0.54,0.72-0.96,1.26-0.96c0.72,0,1.26,0.66,1.26,1.32c0,0.24-0.06,0.42-0.12,0.6
		c-0.359,0.9-0.54,2.58-0.54,3.84c0,3.12,1.26,6.78,4.32,6.78c4.319,0,7.079-5.7,7.079-10.8c0-2.399-0.96-5.64-3.84-5.64
		c-2.279,0-3.06,1.92-3.06,3.36c0,2.4,1.8,2.4,2.82,2.4c0.779,0,1.38,0.6,1.38,1.32c0,0.36-0.12,1.32-1.62,1.32
		c-3.48,0-5.28-2.28-5.28-5.04c0-2.88,2.04-5.879,5.88-5.879C199.014,20.121,201.474,23.48,201.474,28.28z"/>
	<path fill="#FFFFFF" stroke="#A0C014" d="M207.653,40.34c-0.12,0.72-0.66,1.14-1.32,1.14c-0.72,0-1.2-0.6-1.2-1.32
		c0-0.42,1.681-10.26,1.681-12.24c0-2.64-0.54-3.66-1.32-4.44c-0.3-0.24-0.36-0.6-0.36-0.96c0-0.72,0.601-1.32,1.261-1.32
		c1.14,0,2.819,2.04,2.699,5.04c1.32-3.96,4.561-5.76,7.56-5.76c0.78,0,1.44,0.54,1.44,1.32c0,0.72-0.54,1.14-1.26,1.2
		c-6.24,0.36-7.439,7.68-8.819,15.359L207.653,40.34z"/>
	<path fill="#FFFFFF" stroke="#A0C014" d="M224.692,22.401c0,0.06,0,0.18-0.06,0.3c-1.08,4.32-2.22,12.12-2.58,17.819
		c-0.06,0.72-0.6,1.26-1.319,1.26c-0.78,0-1.38-0.6-1.38-1.38c0-0.78,0.899-11.219,2.699-18.359c0.12-0.72,0.9-1.14,1.62-0.96
		C224.272,21.261,224.692,21.801,224.692,22.401z M227.453,13.281l-2.4,1.68l3.66,2.34l-4.44-0.72l-1.68,3.3l0.061-3.48l-3-0.24
		l2.939-1.68l-0.3-2.76l1.8,1.98L227.453,13.281z"/>
	<path fill="#FFFFFF" stroke="#A0C014" d="M245.032,26.601c0,2.28-0.36,4.92-0.78,7.2c-0.24,1.56-0.6,3.6-0.6,4.8
		c0,0.36,0.06,0.6,0.12,0.78c0.119,0.24,0.239,0.42,0.239,0.72c0,0.66-0.66,1.26-1.38,1.26c-1.319,0-1.68-1.68-1.68-2.88
		c0-1.26,0.36-2.94,0.66-5.1c0.359-2.22,0.78-4.56,0.78-6.66c0-2.88-1.561-3.96-3.12-3.96c-4.56,0-7.979,6.96-7.979,12.419
		c0,2.22,1.02,3.78,2.579,3.78c1.62,0,2.82-1.44,3.42-3.06c0.181-0.48,0.66-0.78,1.141-0.78c0.779,0,1.26,0.6,1.26,1.32
		c0,1.02-1.92,5.04-6.24,5.04c-2.399,0-4.859-1.8-4.859-6.3c0-6.24,4.319-14.939,10.919-14.939
		C242.932,20.241,245.032,22.461,245.032,26.601z"/>
	<path fill="#FFFFFF" stroke="#A0C014" d="M256.192,3.742c1.62,0,1.62,2.22,1.62,4.14c0,2.82-1.021,6.72-1.86,10.2
		c-1.32,5.399-3.18,14.039-3.18,18.839c0,1.68,0.18,2.22,0.24,2.4c0.119,0.18,0.18,0.36,0.18,0.6c0,0.78-0.601,1.32-1.32,1.32
		c-1.68,0-1.8-2.64-1.8-4.32c0-4.8,1.8-13.439,2.94-18.059c1.319-5.459,2.159-8.52,2.159-10.979c0-1.2-0.06-1.98-0.239-2.28
		c-0.061-0.18-0.12-0.36-0.12-0.48c0-0.6,0.359-1.08,0.84-1.26C255.772,3.802,256.012,3.742,256.192,3.742z"/>
	<path fill="#FFFFFF" stroke="#A0C014" d="M64.254,84.924c0-2.555,0.56-5.496,1.365-8.156c-0.49,0.07-1.155,0.105-1.68,0.105
		c-0.665,0-0.84-0.49-0.84-0.805c0-0.105,0.07-0.665,0.84-0.665c0.84,0,1.505-0.105,2.24-0.28c0.77-2.24,2.975-7.771,6.23-7.771
		c1.4,0,2.24,0.84,2.24,2.38s-1.12,2.94-1.855,3.675c-1.435,1.47-3.431,2.38-5.391,2.905c-0.91,2.521-1.61,5.986-1.61,8.611
		c0,2.521,0.7,4.166,2.38,4.166c1.715,0,3.92-3.255,3.92-6.65c0-1.681-0.595-2.906-1.82-2.906c-0.735,0-1.19,0.21-1.61,0.666
		c-0.175,0.175-0.385,0.245-0.595,0.245c-0.42,0-0.77-0.35-0.77-0.77c0-0.49,0.91-1.68,3.045-1.68c2.1,0,3.29,1.82,3.29,4.446
		c0,3.85-2.66,7.911-5.496,7.911C66.495,90.35,64.254,89.685,64.254,84.924z M71.78,72.323c0.665-0.665,1.295-1.82,1.295-2.521
		c0-0.595-0.28-1.015-0.735-1.015c-1.365,0-2.976,2.38-4.445,5.881C69.33,74.213,70.8,73.338,71.78,72.323z"/>
	<path fill="#FFFFFF" stroke="#A0C014" d="M78.01,79.114c-0.28,1.505-0.771,3.991-0.771,6.231c0,1.015,0.14,3.255,1.331,3.255
		c2.135,0,4.76-5.46,4.725-9.696c0-0.42,0.385-0.735,0.805-0.735s0.7,0.35,0.7,0.77c0,1.575-0.245,5.005-0.35,6.65
		c-0.105,1.47-0.35,4.341-1.26,7.351c1.155,0.665,2.03,1.82,2.03,3.15c0,0.42-0.35,0.77-0.77,0.77s-0.735-0.35-0.735-0.77
		c0-0.98-0.77-1.505-1.085-1.646c-1.54,3.956-4.97,6.476-8.086,6.476c-1.715,0-3.255-0.84-3.255-2.975c0-3.605,4.515-5.88,8.19-5.88
		c0.805,0,1.61,0.105,2.24,0.315c0.56-1.75,1.085-4.585,1.295-6.721c-0.875,2.45-2.73,4.48-4.445,4.48
		c-2.17,0-2.906-2.345-2.906-4.795c0-2.416,0.525-5.076,0.771-6.371c0.07-0.245,0.175-0.805,0.84-0.805c0.42,0,0.77,0.35,0.77,0.805
		L78.01,79.114z M81.3,93.71c-0.49-0.14-1.225-0.21-1.82-0.21c-2.905,0-6.615,1.855-6.615,4.34c0,1.12,0.945,1.645,1.89,1.645
		C77.169,99.486,79.935,97.211,81.3,93.71z"/>
	<path fill="#FFFFFF" stroke="#A0C014" d="M96.979,68.263c0.945,0,0.945,1.295,0.945,2.415c0,1.646-0.595,3.921-1.085,5.951
		c-0.77,3.15-1.855,8.191-1.855,10.991c0,0.98,0.105,1.295,0.14,1.4c0.07,0.105,0.105,0.21,0.105,0.35c0,0.455-0.35,0.77-0.77,0.77
		c-0.98,0-1.05-1.541-1.05-2.521c0-2.8,1.05-7.841,1.715-10.536c0.77-3.185,1.26-4.97,1.26-6.406c0-0.7-0.035-1.155-0.14-1.33
		c-0.035-0.105-0.07-0.21-0.07-0.28c0-0.35,0.21-0.63,0.49-0.735C96.734,68.298,96.875,68.263,96.979,68.263z"/>
	<path fill="#FFFFFF" stroke="#A0C014" d="M108.04,81.599c0,1.33-0.21,2.87-0.455,4.201c-0.14,0.91-0.35,2.1-0.35,2.8
		c0,0.21,0.035,0.35,0.07,0.455c0.07,0.14,0.14,0.245,0.14,0.42c0,0.385-0.385,0.735-0.805,0.735c-0.77,0-0.98-0.98-0.98-1.68
		c0-0.735,0.21-1.715,0.385-2.975c0.21-1.295,0.455-2.661,0.455-3.886c0-1.68-0.91-2.31-1.82-2.31c-2.661,0-4.656,4.061-4.656,7.246
		c0,1.295,0.595,2.206,1.505,2.206c0.945,0,1.645-0.84,1.995-1.785c0.105-0.28,0.385-0.455,0.665-0.455
		c0.455,0,0.735,0.35,0.735,0.77c0,0.595-1.12,2.94-3.641,2.94c-1.4,0-2.835-1.05-2.835-3.676c0-3.64,2.521-8.716,6.371-8.716
		C106.814,77.889,108.04,79.184,108.04,81.599z"/>
	<path fill="#FFFFFF" stroke="#A0C014" d="M113.009,79.429c-0.35,1.541-0.84,3.956-0.84,6.126c0,1.61,0.315,3.29,1.47,3.29
		c2.24,0,4.271-4.55,5.041-10.081c0.07-0.42,0.385-0.665,0.91-0.665c0.35,0,0.63,0.455,0.56,0.875
		c-0.035,0.35-0.245,1.68-0.49,2.871c-0.315,1.89-0.595,3.5-0.595,4.726c0,1.12,0.21,1.89,0.7,2.415
		c0.14,0.175,0.175,0.35,0.175,0.525c0,0.42-0.35,0.771-0.771,0.771c-0.735,0-1.61-1.47-1.575-3.431c-0.91,2.17-2.416,3.5-3.956,3.5
		c-1.26,0-3.01-0.805-3.01-4.795c0-2.345,0.525-4.971,0.77-6.231c0.07-0.315,0.175-0.875,0.805-0.875
		c0.455,0,0.805,0.385,0.805,0.805V79.429z"/>
	<path fill="#FFFFFF" stroke="#A0C014" d="M123.998,89.615c-0.07,0.42-0.385,0.666-0.77,0.666c-0.42,0-0.7-0.35-0.7-0.771
		c0-0.245,0.98-5.985,0.98-7.141c0-1.54-0.315-2.135-0.77-2.59c-0.175-0.14-0.21-0.35-0.21-0.56c0-0.42,0.35-0.77,0.735-0.77
		c0.665,0,1.645,1.19,1.575,2.94c0.77-2.31,2.66-3.36,4.411-3.36c0.455,0,0.84,0.315,0.84,0.77c0,0.42-0.315,0.665-0.735,0.7
		c-3.641,0.21-4.341,4.48-5.146,8.961L123.998,89.615z"/>
	<path fill="#FFFFFF" stroke="#A0C014" d="M133.939,79.149c0,0.035,0,0.105-0.035,0.175c-0.63,2.521-1.295,7.071-1.505,10.396
		c-0.035,0.42-0.35,0.735-0.77,0.735c-0.455,0-0.805-0.35-0.805-0.805s0.525-6.545,1.575-10.711c0.07-0.42,0.525-0.665,0.945-0.56
		C133.694,78.484,133.939,78.799,133.939,79.149z M135.549,73.828l-1.4,0.98l2.135,1.365l-2.59-0.42l-0.98,1.925l0.035-2.03
		l-1.75-0.14l1.715-0.98l-0.175-1.61l1.05,1.155L135.549,73.828z"/>
	<path fill="#FFFFFF" stroke="#A0C014" d="M143.458,80.794c0-0.7-0.49-1.19-1.4-1.19c-1.75,0-4.235,2.24-4.235,5.985
		c0,1.19,0.385,3.326,2.905,3.326c0.91,0,1.855-0.42,2.45-1.155c0.14-0.175,0.315-0.28,0.56-0.28c0.42,0,0.7,0.35,0.7,0.805
		c0,0.665-1.68,2.065-3.815,2.065c-2.66,0-4.375-1.785-4.375-4.761c0-4.41,3.081-7.491,5.846-7.491c2.1,0,2.94,1.295,2.94,2.695
		c0,2.766-2.905,4.13-4.971,4.13c-0.42,0-0.77-0.28-0.77-0.735c0-0.385,0.315-0.735,0.77-0.77
		C141.708,83.384,143.458,82.369,143.458,80.794z"/>
	<path fill="#FFFFFF" stroke="#A0C014" d="M155.813,85.975c0,0.595-0.49,0.7-0.7,0.665s-0.315-0.105-0.56-0.105
		c-0.665,0-0.84,0.525-0.84,1.015c0,0.84,1.015,1.68,2.275,1.68s2.59-0.735,2.59-2.31c0-0.84-0.42-1.82-1.995-2.661
		c-1.12-0.595-2.555-1.54-2.555-3.29c0-1.436,1.155-2.94,3.325-2.94c2.1,0,2.905,1.505,2.905,2.1c0,0.455-0.35,0.805-0.805,0.805
		c-0.21,0-0.56-0.175-0.63-0.455c-0.105-0.35-0.595-1.12-1.505-1.12c-1.12,0-1.75,0.7-1.75,1.61c0,0.665,0.315,1.085,1.715,1.925
		c1.715,1.015,2.87,2.03,2.87,3.815c0,2.17-1.54,3.781-4.201,3.781c-1.995,0-3.815-1.155-3.815-2.905
		c0-1.47,1.085-2.521,2.416-2.521C155.183,85.064,155.813,85.274,155.813,85.975z"/>
	<path fill="#FFFFFF" stroke="#A0C014" d="M163.407,89.51c-0.175-1.05-0.245-1.715-0.245-2.87c0-3.851,0.805-8.331,1.155-9.801
		c-0.245,0.035-0.63,0.035-0.945,0.035c-0.63,0-1.365,0.035-1.365-0.77c0-0.42,0.351-0.77,0.735-0.7h0.665
		c0.455,0,0.945-0.035,1.33-0.105c1.085-3.465,3.255-7.42,5.95-7.42c1.506,0,2.381,0.91,2.381,2.345c0,2.835-3.605,5.46-7.105,6.335
		c-0.315,1.26-0.876,3.746-1.296,7.106c1.051-3.5,3.186-5.636,5.076-5.636c2.765,0,2.8,3.675,2.8,5.181
		c0,2.905-0.735,5.775-0.84,6.09c-0.105,0.35-0.385,0.595-0.735,0.595c-0.455,0-0.805-0.385-0.805-0.77
		c0-0.07,0.035-0.14,0.035-0.21c0.279-1.085,0.77-3.465,0.77-5.706c0-2.661-0.455-3.571-1.33-3.571c-2.275,0-5.25,5.846-4.761,9.731
		c0.07,0.42-0.279,0.77-0.734,0.77C163.757,90.14,163.478,89.86,163.407,89.51z M166.452,74.914c2.73-0.945,5.076-2.976,5.076-4.69
		c0-0.525-0.245-0.91-0.875-0.91C169.393,69.313,167.537,71.623,166.452,74.914z"/>
	<path fill="#FFFFFF" stroke="#A0C014" d="M177.652,79.429c-0.351,1.541-0.84,3.956-0.84,6.126c0,1.61,0.314,3.29,1.47,3.29
		c2.24,0,4.271-4.55,5.04-10.081c0.07-0.42,0.386-0.665,0.91-0.665c0.351,0,0.631,0.455,0.561,0.875
		c-0.035,0.35-0.245,1.68-0.49,2.871c-0.315,1.89-0.595,3.5-0.595,4.726c0,1.12,0.21,1.89,0.7,2.415
		c0.14,0.175,0.175,0.35,0.175,0.525c0,0.42-0.351,0.771-0.771,0.771c-0.734,0-1.61-1.47-1.575-3.431
		c-0.91,2.17-2.415,3.5-3.955,3.5c-1.26,0-3.011-0.805-3.011-4.795c0-2.345,0.525-4.971,0.771-6.231
		c0.07-0.315,0.175-0.875,0.805-0.875c0.455,0,0.806,0.385,0.806,0.805V79.429z"/>
	<path fill="#FFFFFF" stroke="#A0C014" d="M195.503,79.814c0,0.42-0.28,0.77-0.735,0.77c-0.245,0-0.49-0.14-0.665-0.385
		c-0.245-0.35-0.596-0.666-1.226-0.666c-2.73,0-4.2,3.676-4.2,6.266c0,2.8,1.575,3.15,2.346,3.15c0.944,0,2.17-0.49,2.87-1.75
		c0.14-0.245,0.35-0.455,0.665-0.455c0.42,0,0.665,0.35,0.665,0.805c0,0.665-1.646,2.8-4.306,2.8c-2.17,0-3.815-1.4-3.815-4.55
		c0-3.815,2.415-7.771,5.881-7.771c1.435,0,2.135,0.595,2.415,1.295C195.468,79.464,195.503,79.674,195.503,79.814z"/>
	<path fill="#FFFFFF" stroke="#A0C014" d="M200.752,87.655c0,0.98,0.105,1.295,0.14,1.4c0.07,0.105,0.105,0.21,0.105,0.35
		c0,0.455-0.351,0.77-0.771,0.77c-0.979,0-1.05-1.54-1.05-2.52c0-0.735,0.105-1.715,0.245-2.695c-1.75-0.56-2.485-1.61-2.485-2.66
		c0-1.575,1.26-2.835,3.466-2.835c0.14-0.805,0.35-1.715,0.489-2.345c0.7-3.186,1.12-4.971,1.12-6.406c0-0.7-0.034-1.155-0.14-1.33
		c-0.035-0.105-0.07-0.21-0.07-0.28c0-0.35,0.21-0.63,0.49-0.735c0.07-0.035,0.21-0.07,0.315-0.07c0.945,0,0.945,1.295,0.945,2.415
		c0,1.646-0.525,3.92-0.945,5.951c-0.21,0.84-0.455,1.855-0.665,3.01c1.365,0.315,2.485,1.19,3.255,2.1
		c0.735-0.735,1.54-1.96,1.646-3.255c0.035-0.385,0.28-0.7,0.7-0.7s0.77,0.35,0.77,0.77c0,1.47-1.365,3.64-2.31,4.34
		c1.435,1.82,2.03,4.235,2.03,6.371c0,0.77-0.596,0.875-0.806,0.875c-0.07,0-0.7,0-0.7-0.875c0-1.785-0.595-3.85-1.68-5.391
		c-0.771,0.595-2.205,1.295-3.921,1.26C200.787,86.08,200.752,87.025,200.752,87.655z M199.597,83.594
		c0.141-0.84,0.315-1.82,0.525-2.695c-0.84,0.035-1.646,0.49-1.646,1.4c0,0.315,0.141,0.63,0.351,0.84
		C199.002,83.314,199.282,83.489,199.597,83.594z M201.207,83.804c1.155,0,2.24-0.42,2.905-1.05c-0.525-0.735-1.505-1.47-2.45-1.715
		c-0.21,0.875-0.385,1.855-0.525,2.765H201.207z"/>
</g>
</svg>
